<?xml version="1.0" encoding="UTF-8"?>
<svg xmlns="http://www.w3.org/2000/svg" xmlns:xlink="http://www.w3.org/1999/xlink" width="px" height="px" viewBox="0 0 601 132" version="1.1">
<g id="surface1">
<path style="fill:none;stroke-width:1;stroke-linecap:butt;stroke-linejoin:miter;stroke:rgb(14.509804%,16.470588%,19.215686%);stroke-opacity:1;stroke-miterlimit:10;" d="M 1326.070312 217.023438 C 1322.59375 231.78125 1307.242188 242.632812 1292.171875 241.1875 C 1280 240.03125 1269.570312 232.070312 1259.429688 225.414062 C 1249.148438 218.609375 1236.84375 212.679688 1225.101562 215.859375 C 1217.570312 217.890625 1211.492188 223.390625 1206.273438 229.03125 C 1198.59375 237.28125 1191.640625 246.398438 1185.851562 256.09375 C 1182.65625 261.453125 1179.617188 267.09375 1174.976562 271.289062 C 1170.351562 275.492188 1163.539062 277.953125 1157.75 275.632812 C 1151.8125 273.320312 1148.757812 266.953125 1144.273438 262.460938 C 1137.03125 255.226562 1126.023438 253.054688 1116.03125 254.9375 C 1106.03125 256.820312 1097.203125 262.460938 1089.523438 269.265625 C 1076.773438 280.695312 1066.78125 297.484375 1070.398438 314.273438 C 1073.4375 328.3125 1085.609375 338.882812 1091.398438 352.335938 C 1097.34375 366.523438 1095.460938 383.601562 1086.476562 396.046875 C 1078.21875 407.625 1064.601562 415.007812 1058.523438 427.890625 C 1054.75 435.84375 1054.460938 445.109375 1055.039062 453.9375 C 1056.640625 483.460938 1067.789062 512.117188 1086.039062 535.132812 " transform="matrix(0.5,0,0,0.5,0,0)"/>
<path style="fill:none;stroke-width:1;stroke-linecap:butt;stroke-linejoin:miter;stroke:rgb(14.509804%,16.470588%,19.215686%);stroke-opacity:1;stroke-miterlimit:10;" d="M 1327.65625 242.203125 C 1325.34375 251.320312 1315.78125 257.976562 1304.632812 258.265625 C 1302.3125 258.265625 1299.992188 258.125 1297.679688 257.546875 C 1288.398438 255.515625 1279.710938 249.875 1271.023438 244.804688 C 1268.992188 243.648438 1266.96875 242.492188 1265.078125 241.476562 C 1254.648438 235.835938 1242.492188 231.640625 1230.609375 235.109375 C 1223.078125 237.429688 1216.703125 242.34375 1211.203125 247.125 C 1203.382812 253.921875 1196.859375 261.453125 1191.0625 269.40625 C 1188.75 272.59375 1186.570312 275.921875 1183.820312 278.820312 C 1182.8125 279.828125 1181.648438 280.84375 1180.492188 281.710938 C 1176 285.039062 1169.617188 287.070312 1164.117188 284.898438 C 1158.46875 282.726562 1155.28125 277.078125 1150.9375 273.460938 C 1149.921875 272.59375 1148.773438 271.726562 1147.460938 271 C 1140.796875 267.242188 1132.398438 266.664062 1124.859375 268.6875 C 1116.03125 271.148438 1108.0625 276.9375 1101.109375 283.445312 C 1089.65625 294.15625 1080.25 309.351562 1082.710938 324.265625 C 1084.882812 337.140625 1094.882812 346.546875 1099.226562 358.703125 C 1103.859375 371.296875 1101.539062 386.78125 1093.140625 397.929688 C 1084.882812 408.929688 1072.28125 416.742188 1066.78125 429.335938 C 1063.453125 437.148438 1063.15625 446.125 1063.882812 454.664062 C 1064.171875 457.703125 1064.460938 460.742188 1064.890625 463.78125 C 1068.8125 488.960938 1079.960938 512.84375 1096.179688 532.523438 " transform="matrix(0.5,0,0,0.5,0,0)"/>
<path style="fill:none;stroke-width:1;stroke-linecap:butt;stroke-linejoin:miter;stroke:rgb(14.509804%,16.470588%,19.215686%);stroke-opacity:1;stroke-miterlimit:10;" d="M 1329.25 267.382812 C 1327.523438 273.320312 1319.6875 277.226562 1309.546875 275.632812 C 1307.53125 275.34375 1305.351562 274.765625 1303.179688 274.039062 C 1294.492188 271 1285.9375 264.921875 1276.960938 260.4375 C 1274.929688 259.421875 1272.90625 258.414062 1270.882812 257.539062 C 1260.15625 252.914062 1248.140625 250.59375 1236.398438 254.5 C 1228.867188 256.960938 1222.210938 261.453125 1216.40625 265.5 C 1208.59375 270.859375 1202.359375 276.9375 1196.710938 283.015625 C 1194.390625 285.476562 1192.21875 288.078125 1189.46875 290.25 C 1188.460938 291.117188 1187.4375 291.84375 1186.28125 292.5625 C 1181.9375 295.171875 1176 296.617188 1170.78125 294.59375 C 1165.421875 292.5625 1162.09375 287.789062 1157.75 284.898438 C 1156.726562 284.171875 1155.570312 283.59375 1154.421875 283.015625 C 1148.039062 280.117188 1140.648438 280.40625 1133.992188 283.015625 C 1126.171875 286.054688 1119.359375 291.984375 1112.84375 298.351562 C 1102.703125 308.34375 1093.867188 321.804688 1095.171875 335.117188 C 1096.328125 346.40625 1104.296875 354.796875 1107.34375 365.507812 C 1110.523438 376.65625 1107.921875 390.257812 1099.953125 400.242188 C 1091.6875 410.226562 1080.101562 418.335938 1075.179688 430.78125 C 1072.140625 438.453125 1071.992188 447.132812 1072.859375 455.382812 C 1073.148438 458.28125 1073.59375 461.171875 1074.023438 464.070312 C 1078.367188 488.382812 1090.101562 510.960938 1106.03125 529.921875 " transform="matrix(0.5,0,0,0.5,0,0)"/>
<path style="fill:none;stroke-width:1;stroke-linecap:butt;stroke-linejoin:miter;stroke:rgb(14.509804%,16.470588%,19.215686%);stroke-opacity:1;stroke-miterlimit:10;" d="M 1284.78125 5.71875 C 1282.757812 17.148438 1278.84375 28.148438 1272.46875 37.703125 C 1266.101562 47.257812 1256.96875 55.210938 1246.109375 59.414062 C 1235.820312 63.171875 1224.382812 63.75 1213.507812 62.015625 C 1204.53125 60.570312 1195.84375 57.671875 1188.171875 52.898438 C 1183.679688 50.148438 1179.617188 46.671875 1174.976562 43.929688 C 1174.257812 43.492188 1173.539062 43.054688 1172.960938 42.765625 C 1157.023438 33.9375 1140.359375 33.796875 1126.3125 22.070312 C 1116.171875 13.679688 1114.289062 -0.648438 1111.828125 -13.09375 C 1109.359375 -25.546875 1102.992188 -40.164062 1089.953125 -42.328125 C 1084.453125 -43.34375 1078.953125 -41.75 1073.4375 -41.171875 C 1048.382812 -38.710938 1027.09375 -58.6875 1012.023438 -78.226562 C 1008.257812 -83 1004.0625 -87.632812 998.695312 -91.390625 C 993.484375 -95.015625 987.25 -97.328125 981.890625 -100.515625 C 973.78125 -105.289062 967.554688 -112.09375 963.351562 -120.195312 C 961.320312 -124.25 959.734375 -128.585938 957.414062 -132.789062 C 954.515625 -137.992188 951.039062 -142.195312 948 -146.679688 C 943.796875 -152.90625 940.46875 -159.992188 937.859375 -167.375 C 933.078125 -180.6875 929.890625 -195.304688 929.742188 -209.632812 C 929.601562 -240.03125 942.054688 -268.539062 950.75 -297.921875 C 954.367188 -310.367188 957.414062 -322.960938 958.71875 -335.835938 C 962.335938 -372.453125 952.054688 -408.921875 941.625 -444.242188 " transform="matrix(0.5,0,0,0.5,0,0)"/>
<path style="fill:none;stroke-width:1;stroke-linecap:butt;stroke-linejoin:miter;stroke:rgb(14.509804%,16.470588%,19.215686%);stroke-opacity:1;stroke-miterlimit:10;" d="M 295.867188 480.570312 C 307.453125 470.148438 316.578125 456.6875 323.09375 442.507812 C 324.398438 439.609375 325.703125 436.570312 326.859375 433.53125 C 331.351562 422.101562 334.539062 409.648438 334.398438 397.351562 C 334.398438 395.179688 334.25 392.859375 333.960938 390.695312 C 333.09375 383.023438 330.632812 375.640625 327.007812 368.695312 C 326.71875 368.117188 326.28125 367.53125 325.992188 366.8125 C 318.898438 354.507812 308.320312 343.796875 301.226562 332.507812 C 296.734375 325.5625 294.273438 318.765625 289.929688 313.40625 C 282.539062 304.289062 271.382812 298.5 258.929688 295.898438 C 254.578125 295.023438 249.945312 294.734375 245.3125 295.023438 C 237.195312 295.460938 228.070312 297.34375 220.398438 293.148438 C 211.992188 288.515625 209.09375 277.65625 210.109375 268.398438 C 211.125 259.28125 214.890625 250.882812 216.632812 241.765625 C 216.921875 240.320312 217.0625 239.015625 217.210938 237.570312 C 218.078125 229.609375 217.0625 221.070312 213.007812 214.265625 C 210.976562 210.9375 208.375 208.046875 205.1875 205.875 C 193.742188 198.203125 177.664062 200.664062 163.757812 200.085938 C 157.242188 199.796875 151.007812 198.78125 145.796875 195.3125 C 143.1875 193.570312 141.015625 191.40625 139.132812 188.945312 C 134.929688 183.15625 133.046875 175.625 132.179688 168.390625 C 131.164062 160.578125 131.164062 152.757812 129.28125 145.523438 C 128.703125 143.210938 127.976562 141.039062 126.96875 138.867188 C 119 120.484375 96.398438 112.09375 74.234375 106.15625 C 60.914062 102.539062 48.742188 98.195312 36.140625 94.578125 C 26.289062 91.828125 16.148438 89.515625 5.867188 86.765625 C -5.140625 83.867188 -16.585938 80.398438 -27.164062 76.054688 C -39.039062 71.132812 -50.046875 64.914062 -57 54.34375 " transform="matrix(0.5,0,0,0.5,0,0)"/>
<path style="fill:none;stroke-width:1;stroke-linecap:butt;stroke-linejoin:miter;stroke:rgb(14.509804%,16.470588%,19.215686%);stroke-opacity:1;stroke-miterlimit:10;" d="M 368.578125 517.039062 C 387.84375 503 400.304688 481 407.109375 458.132812 C 408.5625 453.359375 409.71875 448.585938 410.734375 443.804688 C 414.5 425.429688 415.65625 406.46875 415.515625 387.507812 C 415.515625 384.179688 415.515625 380.703125 415.226562 377.375 C 414.640625 365.507812 412.90625 353.789062 407.835938 343.21875 C 407.398438 342.210938 406.96875 341.34375 406.390625 340.328125 C 396.25 321.367188 376.984375 306.3125 372.78125 286.054688 C 370.171875 273.460938 374.523438 261.59375 375.679688 249.875 C 376.984375 237.429688 374.375 223.679688 364.382812 214.273438 C 360.90625 210.9375 356.554688 208.484375 351.921875 206.601562 C 343.375 203.125 333.523438 201.242188 325.265625 195.742188 C 316.578125 189.953125 311.359375 180.40625 308.46875 170.851562 C 305.570312 161.445312 304.703125 151.75 303.398438 141.765625 C 303.25 140.171875 302.960938 138.71875 302.820312 137.132812 C 301.515625 128.59375 299.632812 119.617188 294.414062 112.671875 C 291.804688 109.195312 288.617188 106.59375 284.851562 104.570312 C 271.960938 97.617188 254.578125 99.789062 239.664062 101.671875 C 232.710938 102.539062 225.757812 103.265625 219.382812 101.960938 C 216.046875 101.382812 213.007812 100.226562 209.96875 98.632812 C 203.015625 94.867188 198.234375 88.359375 193.890625 81.703125 C 189.25 74.609375 184.90625 67.226562 178.820312 62.164062 C 176.796875 60.570312 174.765625 59.125 172.59375 57.960938 C 154.195312 48.265625 128.265625 56.375 104.515625 49.28125 C 88.140625 44.359375 76.554688 31.765625 63.804688 21.640625 C 53.8125 13.820312 42.515625 7.164062 30.492188 1.664062 C 17.601562 -4.125 3.546875 -8.757812 -10.359375 -11.796875 C -25.859375 -15.265625 -41.9375 -17.148438 -53.8125 -27.28125 " transform="matrix(0.5,0,0,0.5,0,0)"/>
<path style="fill:none;stroke-width:1;stroke-linecap:butt;stroke-linejoin:miter;stroke:rgb(14.509804%,16.470588%,19.215686%);stroke-opacity:1;stroke-miterlimit:10;" d="M 316.578125 -403.429688 C 309.773438 -384.46875 305.28125 -361.3125 317.59375 -345.101562 C 321.796875 -339.742188 327.296875 -335.695312 333.382812 -332.507812 C 334.539062 -331.929688 335.703125 -331.351562 336.859375 -330.773438 C 353.953125 -322.382812 372.78125 -317.460938 391.757812 -316.304688 C 398.421875 -315.867188 405.226562 -315.867188 411.601562 -313.984375 C 430.726562 -308.34375 440.867188 -284.460938 433.914062 -268.109375 C 431.15625 -261.59375 426.382812 -256.382812 422.03125 -250.882812 C 420.007812 -248.421875 418.125 -245.820312 416.382812 -243.070312 C 409.578125 -232.9375 404.21875 -221.070312 403.203125 -207.898438 C 402.046875 -191.546875 409.578125 -176.929688 415.078125 -161.875 C 422.03125 -142.625 419.859375 -121.0625 424.0625 -100.078125 C 428.40625 -78.65625 435.21875 -58.6875 437.820312 -37.125 C 439.273438 -24.382812 442.460938 -11.796875 439.703125 0.0703125 C 438.546875 5.140625 435.796875 9.476562 432.320312 13.53125 C 425.21875 21.929688 414.210938 28.296875 402.1875 26.414062 C 376.546875 22.648438 351.632812 14.835938 328.890625 5.859375 C 320.921875 2.820312 313.25 -0.507812 305.71875 -3.6875 C 286.015625 -11.9375 267.476562 -23.085938 246.328125 -32.632812 C 226.046875 -41.75 205.1875 -51.164062 184.328125 -58.6875 C 175.492188 -61.867188 166.507812 -64.765625 157.671875 -67.226562 C 145.9375 -70.554688 132.90625 -71.421875 121.75 -77.9375 C 103.9375 -88.210938 96.6875 -104.710938 79.890625 -116 C 65.835938 -125.40625 49.320312 -129.460938 38.890625 -144.65625 C 37.59375 -146.539062 36.429688 -148.414062 35.414062 -150.445312 C 29.1875 -162.164062 26.726562 -175.773438 24.984375 -188.507812 C 23.828125 -197.1875 22.8125 -206.59375 17.164062 -213.546875 C 12.242188 -219.625 5 -222.804688 -1.085938 -227.585938 C -7.171875 -232.210938 -12.382812 -240.320312 -9.484375 -247.554688 " transform="matrix(0.5,0,0,0.5,0,0)"/>
<path style="fill:none;stroke-width:1;stroke-linecap:butt;stroke-linejoin:miter;stroke:rgb(14.509804%,16.470588%,19.215686%);stroke-opacity:1;stroke-miterlimit:10;" d="M 851.09375 -355.953125 C 865.578125 -342.492188 866.585938 -319.484375 861.664062 -300.09375 C 856.742188 -280.695312 847.179688 -262.609375 843.84375 -243.210938 C 842.257812 -233.804688 841.382812 -222.953125 838.484375 -213.835938 C 835.882812 -205.4375 831.53125 -198.492188 823.421875 -195.164062 C 818.0625 -192.992188 811.835938 -192.992188 806.476562 -190.679688 C 791.992188 -184.023438 791.992188 -165.492188 790.25 -148.992188 C 789.960938 -146.828125 789.820312 -144.65625 789.382812 -142.484375 C 786.484375 -124.390625 775.617188 -107.890625 773.734375 -89.65625 C 772 -73.445312 776.492188 -57.820312 780.257812 -42.039062 C 781.851562 -35.53125 783.445312 -28.726562 784.3125 -21.921875 C 785.179688 -14.835938 785.179688 -8.03125 784.023438 -1.515625 C 783.296875 2.679688 782.140625 6.734375 780.835938 10.492188 C 775.328125 27.71875 765.335938 43.78125 755.195312 60.28125 C 749.398438 69.6875 743.460938 79.09375 738.539062 89.515625 C 734.625 97.765625 731.4375 106.304688 729.554688 115.273438 C 728.109375 121.5 728.109375 127.867188 728.546875 134.09375 C 728.976562 141.039062 730.140625 147.984375 730.570312 154.929688 C 730.859375 160.71875 730.859375 165.789062 729.265625 170.992188 C 728.398438 173.742188 726.804688 175.914062 725.648438 178.375 C 724.632812 180.546875 723.765625 182.867188 723.90625 185.90625 C 724.632812 195.601562 728.6875 205.007812 732.742188 213.976562 C 739.554688 229.179688 746.21875 244.375 752.882812 259.570312 C 756.0625 266.953125 759.398438 274.328125 762.585938 281.710938 C 767.65625 293.148438 772.578125 304.578125 777.648438 316.015625 C 780.257812 321.945312 783.007812 328.3125 782.570312 334.679688 C 782.28125 339.171875 780.6875 343.21875 778.664062 347.273438 C 776.921875 350.890625 775.039062 354.367188 773.59375 358.125 C 773.445312 358.421875 773.304688 358.851562 773.304688 359.140625 C 772 362.757812 771.273438 366.523438 770.554688 370.140625 C 769.25 377.085938 768.523438 384.03125 765.1875 389.820312 C 759.109375 400.53125 745.78125 405.453125 733.03125 406.179688 C 720.429688 406.757812 707.6875 404.726562 694.9375 407.773438 C 693.632812 408.0625 692.1875 408.492188 690.882812 408.929688 C 687.835938 410.085938 685.085938 411.53125 682.914062 413.125 C 681.46875 414.140625 680.164062 415.148438 679 416.3125 C 676.6875 418.476562 674.226562 420.9375 671.90625 423.6875 C 664.085938 432.953125 658 444.671875 652.78125 457.84375 C 644.960938 477.671875 638.585938 499.960938 635.984375 520.945312 " transform="matrix(0.5,0,0,0.5,0,0)"/>
<path style="fill:none;stroke-width:1;stroke-linecap:butt;stroke-linejoin:miter;stroke:rgb(14.509804%,16.470588%,19.215686%);stroke-opacity:1;stroke-miterlimit:10;" d="M 803 -351.179688 C 813.867188 -338.007812 814.734375 -318.179688 810.679688 -301.101562 C 806.476562 -284.023438 798.21875 -267.8125 793.296875 -251.460938 C 790.828125 -243.5 788.65625 -234.820312 785.039062 -227.4375 C 781.851562 -220.78125 777.359375 -215.28125 770.40625 -212.09375 C 765.625 -209.921875 760.414062 -209.492188 755.773438 -207.179688 C 743.03125 -200.953125 740.28125 -186.765625 737.09375 -172.734375 C 736.65625 -170.851562 736.21875 -168.96875 735.789062 -167.234375 C 732.023438 -151.601562 724.34375 -136.546875 722.609375 -120.335938 C 720.867188 -103.265625 723.1875 -86.328125 725.210938 -69.398438 C 725.9375 -62.734375 727.671875 -55.210938 728.257812 -47.828125 C 728.835938 -40.164062 728.257812 -32.78125 725.210938 -26.84375 C 723.1875 -22.9375 720.578125 -20.335938 717.96875 -17.726562 C 707.398438 -6.726562 691.460938 2.679688 677.117188 15.273438 C 668.71875 22.507812 660.898438 31.046875 655.25 42.1875 C 650.90625 50.875 648.296875 60.28125 647.28125 69.835938 C 646.554688 76.492188 647.140625 83.289062 648.4375 89.804688 C 649.742188 97.039062 651.773438 104.132812 653.507812 111.078125 C 654.8125 116.867188 656.117188 122.078125 656.117188 127.289062 C 656.117188 130.179688 655.679688 132.5 655.539062 135.101562 C 655.390625 137.421875 655.390625 139.882812 656.117188 142.921875 C 658.578125 152.757812 663.21875 162.453125 667.703125 171.867188 C 675.234375 187.78125 682.484375 203.992188 689.726562 220.0625 C 693.203125 227.875 696.679688 235.6875 700.296875 243.507812 C 705.804688 255.664062 711.164062 267.671875 716.664062 279.828125 C 719.5625 286.195312 722.3125 292.710938 723.1875 299.226562 C 723.765625 303.859375 723.476562 308.195312 722.898438 312.539062 C 722.460938 316.445312 721.882812 320.351562 720.867188 324.554688 C 720.71875 324.84375 720.71875 325.273438 720.578125 325.5625 C 719.5625 329.476562 718.117188 333.382812 716.664062 337 C 713.765625 344.234375 710.875 350.3125 706.234375 354.945312 C 697.6875 363.484375 683.640625 365.796875 670.023438 363.625 C 653.21875 360.875 636.703125 355.234375 619.179688 361.453125 C 617.4375 362.039062 615.703125 362.90625 614.109375 363.921875 C 610.34375 366.375 607.734375 369.703125 607.15625 373.03125 C 606.71875 375.203125 607.15625 376.796875 607.304688 378.828125 C 607.445312 382.445312 606.867188 386.78125 606.140625 391.273438 C 604.117188 406.609375 603.242188 423.976562 599.914062 442.507812 C 594.695312 470.867188 583.257812 499.8125 573.984375 527.171875 " transform="matrix(0.5,0,0,0.5,0,0)"/>
<path style="fill:none;stroke-width:1;stroke-linecap:butt;stroke-linejoin:miter;stroke:rgb(14.509804%,16.470588%,19.215686%);stroke-opacity:1;stroke-miterlimit:10;" d="M 722.75 -343.21875 C 727.820312 -330.625 728.257812 -316.15625 725.359375 -302.695312 C 722.460938 -289.234375 716.375 -276.359375 708.695312 -265.070312 C 704.789062 -259.421875 700.445312 -254.210938 695.375 -249.726562 C 691.171875 -245.960938 686.539062 -242.78125 681.320312 -240.03125 C 677.695312 -238.148438 674.078125 -236.554688 670.453125 -234.53125 C 660.75 -229.171875 653.070312 -221.9375 647.71875 -212.382812 C 646.992188 -211.085938 646.265625 -209.78125 645.6875 -208.335938 C 640.328125 -196.898438 638.007812 -184.023438 636.851562 -171.28125 C 635.109375 -152.46875 633.953125 -133.65625 632.796875 -114.984375 C 632.359375 -108.328125 633.953125 -99.5 634.101562 -90.960938 C 634.242188 -82.273438 632.796875 -74.171875 626.5625 -69.109375 C 622.65625 -65.921875 617.4375 -65.34375 612.515625 -64.90625 C 594.265625 -63.460938 567.757812 -66.070312 546.023438 -59.695312 C 533.28125 -56.078125 522.273438 -49.28125 515.460938 -36.539062 C 510.390625 -27.132812 508.796875 -16.421875 509.382812 -5.71875 C 509.8125 1.664062 511.554688 9.046875 513.867188 15.851562 C 516.625 23.515625 520.101562 30.898438 524.007812 37.992188 C 527.054688 43.632812 530.234375 49.132812 533.28125 54.632812 C 534.875 57.53125 536.320312 60.421875 537.914062 63.320312 C 539.367188 65.921875 540.664062 68.671875 542.257812 71.421875 C 547.617188 81.40625 553.273438 91.6875 558.484375 101.960938 C 567.320312 119.1875 575.429688 136.84375 583.6875 154.351562 C 587.601562 162.890625 591.65625 171.429688 595.570312 179.820312 C 601.648438 192.992188 607.882812 206.3125 613.960938 219.476562 C 617.148438 226.429688 620.335938 233.375 623.234375 240.179688 C 625.265625 245.09375 627.148438 249.875 628.882812 254.648438 C 630.476562 258.992188 632.21875 263.617188 631.78125 268.398438 C 631.78125 268.828125 631.632812 269.265625 631.632812 269.554688 C 630.914062 273.898438 628.59375 277.945312 625.84375 281.421875 C 620.046875 288.945312 613.820312 293.578125 607.15625 296.328125 C 594.265625 301.25 579.34375 298.5 564.28125 292.570312 C 540.664062 283.15625 517.492188 272.453125 492.140625 284.171875 C 489.679688 285.328125 487.359375 286.921875 485.476562 288.945312 C 480.695312 293.578125 478.09375 300.234375 480.117188 306.023438 C 481.421875 309.9375 484.460938 312.6875 486.929688 316.015625 C 491.414062 322.09375 493.734375 329.617188 495.90625 337 C 503.585938 362.617188 511.554688 388.953125 511.265625 416.453125 C 510.828125 459.148438 490.40625 499.234375 470.125 536.867188 " transform="matrix(0.5,0,0,0.5,0,0)"/>
<path style="fill:none;stroke-width:1;stroke-linecap:butt;stroke-linejoin:miter;stroke:rgb(14.509804%,16.470588%,19.215686%);stroke-opacity:1;stroke-miterlimit:10;" d="M 591.078125 235.546875 C 580.210938 200.234375 551.242188 173.3125 537.195312 139.304688 C 533.28125 129.75 530.53125 119.90625 527.34375 110.0625 C 523.578125 98.484375 519.226562 86.90625 514.304688 75.765625 C 512.421875 71.421875 509.960938 66.789062 505.320312 65.492188 C 500.546875 64.1875 495.617188 67.375 492.867188 71.421875 C 490.117188 75.476562 488.8125 80.398438 486.640625 84.742188 C 480.117188 98.054688 464.90625 106.59375 450.132812 105.148438 C 438.257812 103.984375 426.8125 98.195312 414.648438 98.632812 C 407.109375 98.921875 403.054688 103.84375 405.226562 111.367188 C 406.242188 114.84375 408.414062 117.882812 410.734375 120.773438 C 420.4375 133.367188 432.460938 144.804688 438.984375 159.421875 C 446.226562 175.625 443.617188 193.140625 443.617188 210.359375 C 441.585938 218.46875 439.5625 227.148438 442.75 234.820312 C 446.804688 244.515625 457.953125 249.007812 468.382812 249.875 C 478.8125 250.59375 489.242188 248.570312 499.671875 249.726562 C 519.664062 251.757812 537.046875 264.78125 556.75 268.25 C 581.804688 272.742188 599.335938 262.609375 591.078125 235.546875 Z M 591.078125 235.546875 " transform="matrix(0.5,0,0,0.5,0,0)"/>
<path style="fill:none;stroke-width:1;stroke-linecap:butt;stroke-linejoin:miter;stroke:rgb(14.509804%,16.470588%,19.215686%);stroke-opacity:1;stroke-miterlimit:10;" d="M 546.460938 223.820312 C 547.039062 229.898438 545.59375 234.242188 541.96875 236.703125 C 538.203125 239.304688 532.703125 239.882812 526.46875 238.585938 C 516.476562 236.414062 507.640625 229.757812 498.515625 226.859375 C 493.445312 225.265625 488.664062 224.398438 483.882812 222.515625 C 479.101562 220.640625 474.03125 217.3125 471.570312 212.101562 C 471.28125 211.375 470.992188 210.648438 470.703125 209.929688 C 469.6875 206.3125 469.6875 202.6875 469.6875 199.21875 C 467.953125 190.242188 467.078125 181.273438 462.882812 172.585938 C 461 168.828125 458.828125 165.351562 456.65625 161.875 C 454.1875 157.96875 451.875 154.0625 449.84375 150.007812 C 448.976562 148.273438 448.109375 146.539062 447.820312 144.507812 C 447.523438 143.351562 447.523438 142.34375 447.671875 141.328125 C 448.109375 138.867188 449.554688 137.132812 452.164062 136.554688 C 455.640625 135.679688 459.40625 136.257812 463.023438 136.84375 C 465.492188 137.273438 467.953125 137.5625 470.414062 137.5625 C 478.09375 137.710938 485.914062 133.945312 490.40625 128.15625 C 491.851562 126.273438 492.867188 123.960938 494.601562 122.367188 C 497.210938 120.054688 500.835938 118.890625 504.023438 119.617188 C 507.351562 120.34375 509.671875 122.804688 511.265625 125.695312 C 512.710938 128.445312 514.015625 131.632812 514.882812 135.101562 C 516.1875 140.3125 517.203125 145.234375 518.21875 150.15625 C 519.664062 156.8125 521.257812 163.46875 524.445312 170.851562 C 532.554688 188.945312 544.867188 205.875 546.460938 223.820312 Z M 546.460938 223.820312 " transform="matrix(0.5,0,0,0.5,0,0)"/>
<path style="fill:none;stroke-width:1;stroke-linecap:butt;stroke-linejoin:miter;stroke:rgb(14.509804%,16.470588%,19.215686%);stroke-opacity:1;stroke-miterlimit:10;" d="M 979.140625 375.351562 C 965.671875 391.5625 950.601562 406.898438 932.351562 417.609375 C 917.140625 426.585938 899.46875 432.085938 882.085938 431.21875 C 878.609375 431.070312 875.132812 430.632812 871.804688 429.914062 C 851.234375 425.570312 832.835938 409.9375 827.914062 389.820312 C 821.976562 365.21875 834.867188 342.210938 842.835938 318.765625 C 847.320312 305.882812 849.640625 291.984375 850.078125 278.234375 C 850.367188 268.25 849.5 258.265625 847.617188 248.570312 C 841.820312 219.765625 822.40625 196.757812 819.945312 166.367188 C 818.5 148.851562 821.828125 107.601562 828.351562 63.171875 C 832.984375 31.765625 838.921875 -1.085938 846.3125 -28.296875 C 855.289062 -60.859375 865.867188 -85.023438 877.015625 -86.328125 C 888.609375 -87.632812 896.429688 -75.476562 901.648438 -65.492188 C 908.453125 -52.609375 913.523438 -38.28125 920.90625 -24.820312 C 923.226562 -20.625 925.6875 -16.570312 928.445312 -12.664062 C 942.0625 6.148438 962.195312 19.609375 982.328125 31.335938 C 995.21875 38.859375 1008.84375 44.9375 1023.03125 48.84375 C 1027.09375 50 1031.289062 51.015625 1035.492188 51.742188 C 1046.0625 53.625 1057.648438 54.34375 1065.46875 61.4375 C 1071.273438 66.648438 1073.148438 74.609375 1076.476562 81.40625 C 1083.4375 96.023438 1096.757812 107.601562 1111.390625 112.09375 C 1119.21875 114.554688 1127.039062 115.132812 1134.570312 117.304688 C 1147.460938 120.921875 1165.421875 130.46875 1173.679688 141.328125 C 1181.359375 151.601562 1175.132812 172.875 1169.90625 184.3125 C 1168.898438 186.484375 1167.890625 188.648438 1166 190.242188 C 1161.21875 194.148438 1153.976562 192.414062 1147.609375 192.273438 C 1133.5625 191.984375 1123.851562 200.226562 1112.40625 206.601562 C 1110.226562 207.757812 1107.921875 208.914062 1105.601562 210.070312 C 1094.882812 214.992188 1083.578125 218.898438 1073.59375 225.554688 C 1056.351562 236.992188 1042.726562 252.765625 1031.289062 269.695312 C 1025.492188 278.382812 1020.28125 287.359375 1015.5 296.328125 C 1012.601562 301.828125 1010.140625 307.476562 1007.820312 313.265625 C 999.132812 334.96875 993.484375 357.984375 979.140625 375.351562 Z M 979.140625 375.351562 " transform="matrix(0.5,0,0,0.5,0,0)"/>
<path style="fill:none;stroke-width:1;stroke-linecap:butt;stroke-linejoin:miter;stroke:rgb(14.509804%,16.470588%,19.215686%);stroke-opacity:1;stroke-miterlimit:10;" d="M 1035.921875 163.328125 C 1024.773438 163.757812 1013.328125 161.734375 1002.609375 164.773438 C 988.414062 168.828125 978.125 181.125 969.289062 192.992188 C 964.65625 199.070312 960.164062 205.296875 957.554688 212.390625 C 953.9375 222.226562 954.367188 233.085938 953.210938 243.507812 C 952.054688 253.921875 948.429688 265.070312 939.59375 270.710938 C 933.945312 274.328125 926.703125 275.203125 920.476562 272.882812 C 904.976562 267.382812 900.773438 246.976562 903.960938 230.765625 C 907.148438 214.5625 914.96875 199.070312 913.953125 182.570312 C 913.234375 170.703125 907.726562 159.710938 903.8125 148.421875 C 900.195312 138.289062 897.875 127.726562 896.71875 117.015625 C 895.851562 109.195312 895.851562 100.804688 900.34375 94.4375 C 908.015625 83.4375 924.820312 84.015625 936.84375 89.65625 C 948.867188 95.304688 959.148438 104.859375 971.898438 108.90625 C 984.210938 112.8125 997.390625 111.226562 1010.140625 109.921875 C 1022.890625 108.617188 1036.359375 107.898438 1048.09375 113.101562 C 1079.382812 127.289062 1067.070312 162.023438 1035.921875 163.328125 Z M 1035.921875 163.328125 " transform="matrix(0.5,0,0,0.5,0,0)"/>
<path style="fill:none;stroke-width:1;stroke-linecap:butt;stroke-linejoin:miter;stroke:rgb(14.509804%,16.470588%,19.215686%);stroke-opacity:1;stroke-miterlimit:10;" d="M 3.695312 -162.742188 C 7.460938 -132.0625 24.40625 -103.265625 49.320312 -84.734375 C 57.289062 -78.804688 66.125 -74.023438 73.804688 -67.804688 C 90.609375 -54.492188 102.34375 -34.953125 121.171875 -24.671875 C 153.039062 -7.164062 193.164062 -21.054688 228.507812 -12.664062 C 245.601562 -8.609375 260.953125 0.65625 275.585938 10.492188 C 281.8125 14.6875 288.476562 19.898438 288.914062 27.28125 C 289.054688 28.726562 288.765625 30.179688 287.898438 31.335938 C 286.445312 32.929688 283.984375 32.929688 281.8125 32.492188 C 268.921875 30.179688 257.765625 22.796875 246.328125 16.570312 C 227.929688 6.585938 207.796875 -0.9375 186.9375 -1.804688 C 162.890625 -2.820312 137.25 4.5625 115.8125 -6.296875 C 91.90625 -18.453125 82.640625 -49.132812 59.898438 -63.320312 C 50.773438 -68.960938 40.054688 -71.710938 30.203125 -75.765625 C -12.09375 -92.84375 -40.921875 -138.429688 -38.601562 -183.875 " transform="matrix(0.5,0,0,0.5,0,0)"/>
<path style="fill:none;stroke-width:1;stroke-linecap:butt;stroke-linejoin:miter;stroke:rgb(14.509804%,16.470588%,19.215686%);stroke-opacity:1;stroke-miterlimit:10;" d="M 230.828125 483.171875 C 241.398438 470.578125 248.929688 449.304688 251.539062 433.242188 C 254 418.046875 251.390625 401.257812 240.820312 389.96875 C 231.546875 379.984375 217.929688 375.78125 205.328125 371.007812 C 186.9375 363.921875 168.679688 354.367188 156.367188 338.882812 C 148.40625 328.75 143.335938 315.726562 143.625 302.695312 C 143.914062 291.265625 158.25 280.265625 150.140625 268.976562 C 146.664062 264.203125 141.015625 261.59375 135.21875 260.296875 C 129.570312 258.84375 123.632812 258.554688 117.984375 256.960938 C 81.625 247.414062 100.164062 211.664062 82.492188 189.234375 C 76.265625 181.273438 65.398438 179.242188 55.40625 177.945312 C 36.140625 175.625 16.734375 174.46875 -2.679688 174.757812 " transform="matrix(0.5,0,0,0.5,0,0)"/>
<path style="fill:none;stroke-width:1;stroke-linecap:butt;stroke-linejoin:miter;stroke:rgb(14.509804%,16.470588%,19.215686%);stroke-opacity:1;stroke-miterlimit:10;" d="M 820.820312 282.4375 C 817.773438 265.789062 809.085938 250.882812 801.554688 235.6875 C 782.71875 197.914062 771.132812 153.335938 785.179688 113.539062 C 786.054688 111.226562 786.921875 108.765625 786.632812 106.304688 C 786.195312 103.84375 784.023438 101.382812 781.5625 101.8125 C 780.257812 102.109375 779.242188 102.976562 778.375 103.84375 C 770.84375 111.804688 768.671875 123.382812 768.960938 134.234375 C 769.25 145.09375 771.5625 155.945312 771.710938 166.796875 C 771.859375 187.492188 763.742188 208.335938 768.671875 228.453125 C 773.742188 248.570312 791.125 263.617188 797.203125 283.445312 C 799.523438 290.976562 800.539062 325.710938 810.820312 325.851562 C 824.296875 326 822.117188 289.671875 820.820312 282.4375 Z M 820.820312 282.4375 " transform="matrix(0.5,0,0,0.5,0,0)"/>
<path style="fill:none;stroke-width:1;stroke-linecap:butt;stroke-linejoin:miter;stroke:rgb(14.509804%,16.470588%,19.215686%);stroke-opacity:1;stroke-miterlimit:10;" d="M 1223.796875 207.179688 C 1215.539062 207.03125 1207.578125 211.085938 1201.492188 216.726562 C 1195.40625 222.375 1191.0625 229.609375 1187.007812 236.84375 C 1184.546875 241.335938 1182.078125 246.109375 1178.320312 249.726562 C 1174.546875 253.34375 1169.34375 255.804688 1164.273438 254.648438 C 1159.632812 253.632812 1156.296875 250.015625 1152.679688 246.976562 C 1149.0625 243.9375 1144.421875 241.335938 1139.929688 242.78125 C 1138.1875 243.359375 1136.601562 244.664062 1134.570312 244.804688 C 1130.078125 245.09375 1127.757812 238.726562 1129.9375 234.820312 C 1132.109375 230.914062 1136.742188 229.179688 1141.09375 227.585938 C 1158.757812 221.359375 1176.429688 215.28125 1194.109375 209.0625 C 1199.46875 207.179688 1204.828125 205.296875 1209.460938 202.257812 C 1221.34375 194.15625 1226.40625 179.390625 1229.882812 165.351562 " transform="matrix(0.5,0,0,0.5,0,0)"/>
<path style="fill:none;stroke-width:1;stroke-linecap:butt;stroke-linejoin:miter;stroke:rgb(14.509804%,16.470588%,19.215686%);stroke-opacity:1;stroke-miterlimit:10;" d="M 1174.546875 230.1875 C 1168.46875 238.875 1158.328125 240.609375 1151.078125 232.359375 C 1158.757812 226.140625 1182.226562 224.835938 1186.429688 217.453125 C 1183.53125 222.375 1177.882812 225.414062 1174.546875 230.1875 Z M 1174.546875 230.1875 " transform="matrix(0.5,0,0,0.5,0,0)"/>
<path style="fill:none;stroke-width:1;stroke-linecap:butt;stroke-linejoin:miter;stroke:rgb(14.509804%,16.470588%,19.215686%);stroke-opacity:1;stroke-miterlimit:10;" d="M 1066.046875 22.507812 C 1059.242188 20.914062 1052.148438 22.796875 1045.046875 23.085938 C 1023.898438 23.953125 1004.78125 10.351562 990.875 -5.570312 C 976.96875 -21.492188 966.101562 -40.164062 950.75 -54.632812 C 943.9375 -61 935.25 -66.9375 925.976562 -65.921875 C 926.265625 -56.515625 933.078125 -48.414062 940.757812 -42.765625 C 948.429688 -37.265625 957.265625 -33.507812 964.796875 -27.570312 C 975.664062 -19.03125 982.765625 -6.726562 992.320312 3.398438 C 1005.5 17.4375 1023.46875 26.992188 1042.4375 30.03125 C 1049.390625 31.1875 1056.351562 31.476562 1063.296875 33.070312 C 1067.648438 34.085938 1071.851562 35.671875 1075.898438 37.265625 C 1079.226562 31.046875 1071.992188 24.09375 1066.046875 22.507812 Z M 1066.046875 22.507812 " transform="matrix(0.5,0,0,0.5,0,0)"/>
<path style="fill:none;stroke-width:1;stroke-linecap:butt;stroke-linejoin:miter;stroke:rgb(14.509804%,16.470588%,19.215686%);stroke-opacity:1;stroke-miterlimit:10;" d="M 966.828125 155.367188 C 963.929688 159.710938 960.742188 165.203125 955.53125 165.351562 C 950.023438 165.5 946.546875 158.984375 947.273438 153.484375 C 947.421875 151.890625 947.851562 150.445312 947.710938 148.851562 C 947.273438 145.960938 944.8125 143.929688 943.070312 141.617188 C 941.1875 139.304688 940.03125 135.828125 941.914062 133.65625 C 942.640625 132.789062 943.796875 132.351562 944.953125 132.0625 C 951.90625 129.890625 959.585938 129.890625 966.539062 131.921875 C 969.148438 132.640625 971.757812 133.804688 974.359375 134.09375 C 981.75 135.101562 988.125 131.054688 994.929688 129.75 C 999.710938 128.882812 1010 129.601562 1002.460938 135.828125 C 998.984375 138.71875 988.125 138.429688 983.34375 140.890625 C 976.820312 144.078125 971.03125 149.140625 966.828125 155.367188 Z M 966.828125 155.367188 " transform="matrix(0.5,0,0,0.5,0,0)"/>
</g>
</svg>
