<?xml version="1.0" encoding="UTF-8"?>
<svg xmlns="http://www.w3.org/2000/svg" xmlns:xlink="http://www.w3.org/1999/xlink" width="px" height="px" viewBox="0 0 901 198" version="1.1">
<g id="surface1">
<path style="fill:none;stroke-width:1;stroke-linecap:butt;stroke-linejoin:miter;stroke:rgb(14.509804%,16.470588%,19.215686%);stroke-opacity:1;stroke-miterlimit:10;" d="M 1326.068812 217.020833 C 1322.587715 231.78125 1307.240661 242.635417 1292.169803 241.1875 C 1280.001595 240.03125 1269.568726 232.072917 1259.427685 225.411458 C 1249.151151 218.614583 1236.842241 212.677083 1225.101354 215.864583 C 1217.571136 217.885417 1211.489638 223.385417 1206.267992 229.03125 C 1198.59186 237.28125 1191.640087 246.401042 1185.850418 256.09375 C 1182.661149 261.453125 1179.617794 267.09375 1174.979805 271.291667 C 1170.352239 275.489583 1163.54117 277.947917 1157.7515 275.635417 C 1151.810705 273.317708 1148.762139 266.947917 1144.270065 262.463542 C 1137.031675 255.229167 1126.020359 253.057292 1116.030444 254.9375 C 1106.030105 256.817708 1097.202293 262.463542 1089.520949 269.265625 C 1076.769085 280.697917 1066.779169 297.489583 1070.400969 314.276042 C 1073.439113 328.3125 1085.612531 338.880208 1091.402201 352.338542 C 1097.337784 366.520833 1095.461744 383.598958 1086.477594 396.046875 C 1078.217805 407.625 1064.600877 415.005208 1058.51938 427.885417 C 1054.751665 435.848958 1054.459836 445.109375 1055.038282 453.9375 C 1056.638128 483.463542 1067.790146 512.119792 1086.039852 535.130208 " transform="matrix(0.749584,0,0,0.75,0,0)"/>
<path style="fill:none;stroke-width:1;stroke-linecap:butt;stroke-linejoin:miter;stroke:rgb(14.509804%,16.470588%,19.215686%);stroke-opacity:1;stroke-miterlimit:10;" d="M 1327.658236 242.203125 C 1325.339241 251.317708 1315.781857 257.979167 1304.629838 258.265625 C 1302.310844 258.265625 1299.991849 258.119792 1297.678066 257.541667 C 1288.402088 255.515625 1279.709767 249.869792 1271.017446 244.807292 C 1268.99028 243.651042 1266.968325 242.489583 1265.081862 241.479167 C 1254.648992 235.833333 1242.491208 231.635417 1230.609618 235.109375 C 1223.0794 237.427083 1216.700862 242.34375 1211.19781 247.119792 C 1203.380974 253.927083 1196.861733 261.447917 1191.061642 269.411458 C 1188.747858 272.59375 1186.569567 275.921875 1183.818041 278.817708 C 1182.812275 279.833333 1181.650172 280.84375 1180.488069 281.713542 C 1176.001205 285.041667 1169.617456 287.067708 1164.119615 284.895833 C 1158.470649 282.723958 1155.28138 277.083333 1150.940431 273.463542 C 1149.919031 272.59375 1148.772562 271.723958 1147.459333 271 C 1140.79939 267.239583 1132.398897 266.661458 1124.858256 268.6875 C 1116.030444 271.145833 1108.062483 276.9375 1101.11071 283.447917 C 1089.661652 294.161458 1080.250182 309.354167 1082.70988 324.260417 C 1084.877749 337.140625 1094.878087 346.552083 1099.229459 358.708333 C 1103.862236 371.296875 1101.538031 386.786458 1093.137538 397.927083 C 1084.877749 408.927083 1072.282221 416.744792 1066.779169 429.333333 C 1063.449197 437.151042 1063.16258 446.119792 1063.881729 454.661458 C 1064.168346 457.697917 1064.460174 460.739583 1064.887495 463.78125 C 1068.811546 488.963542 1079.958354 512.838542 1096.180893 532.526042 " transform="matrix(0.749584,0,0,0.75,0,0)"/>
<path style="fill:none;stroke-width:1;stroke-linecap:butt;stroke-linejoin:miter;stroke:rgb(14.509804%,16.470588%,19.215686%);stroke-opacity:1;stroke-miterlimit:10;" d="M 1329.247659 267.385417 C 1327.517533 273.317708 1319.690275 277.223958 1309.549233 275.635417 C 1307.53249 275.34375 1305.348987 274.765625 1303.181118 274.041667 C 1294.488797 271 1285.94239 264.921875 1276.958241 260.4375 C 1274.931075 259.421875 1272.90912 258.411458 1270.881954 257.541667 C 1260.162467 252.911458 1248.140174 250.59375 1236.399287 254.505208 C 1228.869069 256.963542 1222.209125 261.447917 1216.409033 265.5 C 1208.592198 270.859375 1202.359574 276.9375 1196.710608 283.015625 C 1194.391613 285.473958 1192.218533 288.078125 1189.472218 290.25 C 1188.461241 291.119792 1187.439841 291.84375 1186.277738 292.567708 C 1181.942 295.171875 1176.001205 296.619792 1170.779559 294.59375 C 1165.422421 292.567708 1162.092449 287.791667 1157.7515 284.895833 C 1156.7301 284.171875 1155.567997 283.59375 1154.421528 283.015625 C 1148.037779 280.119792 1140.648264 280.411458 1133.98832 283.015625 C 1126.171485 286.052083 1119.360416 291.989583 1112.841175 298.354167 C 1102.700134 308.34375 1093.872321 321.802083 1095.169915 335.114583 C 1096.332018 346.40625 1104.299979 354.796875 1107.338123 365.510417 C 1110.52218 376.651042 1107.92178 390.255208 1099.948607 400.244792 C 1091.688818 410.229167 1080.099057 418.333333 1075.179661 430.78125 C 1072.141518 438.453125 1071.990393 447.135417 1072.860667 455.385417 C 1073.152495 458.28125 1073.590238 461.171875 1074.017559 464.067708 C 1078.36893 488.380208 1090.099395 510.958333 1106.030105 529.916667 " transform="matrix(0.749584,0,0,0.75,0,0)"/>
<path style="fill:none;stroke-width:1;stroke-linecap:butt;stroke-linejoin:miter;stroke:rgb(14.509804%,16.470588%,19.215686%);stroke-opacity:1;stroke-miterlimit:10;" d="M 1284.780288 5.71875 C 1282.758333 17.151042 1278.839493 28.151042 1272.471377 37.703125 C 1266.098051 47.255208 1256.967987 55.213542 1246.107797 59.411458 C 1235.820841 63.177083 1224.382206 63.755208 1213.511593 62.015625 C 1204.527443 60.567708 1195.840334 57.677083 1188.169412 52.901042 C 1183.682549 50.151042 1179.617794 46.677083 1174.979805 43.927083 C 1174.260657 43.489583 1173.541508 43.057292 1172.957851 42.765625 C 1157.021929 33.9375 1140.361647 33.796875 1126.312188 22.072917 C 1116.171147 13.677083 1114.289895 -0.651042 1111.830197 -13.098958 C 1109.360077 -25.541667 1102.991962 -40.161458 1089.948269 -42.333333 C 1084.450428 -43.34375 1078.952587 -41.75 1073.439113 -41.171875 C 1048.378338 -38.713542 1027.09049 -58.6875 1012.019631 -78.223958 C 1008.262339 -83 1004.062092 -87.630208 998.694532 -91.395833 C 993.483308 -95.010417 987.250685 -97.328125 981.893547 -100.510417 C 973.779672 -105.286458 967.55226 -112.088542 963.352013 -120.192708 C 961.324847 -124.244792 959.730213 -128.588542 957.411218 -132.786458 C 954.513778 -137.994792 951.037892 -142.192708 947.994537 -146.682292 C 943.799502 -152.901042 940.464319 -159.994792 937.858707 -167.375 C 933.074804 -180.692708 929.890746 -195.307292 929.744832 -209.635417 C 929.598918 -240.03125 942.058954 -268.541667 950.751275 -297.921875 C 954.373075 -310.364583 957.411218 -322.958333 958.719236 -335.838542 C 962.335825 -372.453125 952.054081 -408.927083 941.626422 -444.239583 " transform="matrix(0.749584,0,0,0.75,0,0)"/>
<path style="fill:none;stroke-width:1;stroke-linecap:butt;stroke-linejoin:miter;stroke:rgb(14.509804%,16.470588%,19.215686%);stroke-opacity:1;stroke-miterlimit:10;" d="M 295.862011 480.567708 C 307.451772 470.145833 316.576625 456.6875 323.095866 442.505208 C 324.398672 439.609375 325.701478 436.567708 326.86358 433.53125 C 331.355655 422.098958 334.539713 409.651042 334.393799 397.348958 C 334.393799 395.177083 334.253096 392.864583 333.961267 390.692708 C 333.090993 383.020833 330.631295 375.640625 327.009495 368.692708 C 326.717666 368.114583 326.285135 367.536458 325.993306 366.8125 C 318.895619 354.510417 308.322047 343.802083 301.22436 332.510417 C 296.732285 325.5625 294.272588 318.760417 289.926427 313.40625 C 282.536912 304.291667 271.384894 298.5 258.924858 295.895833 C 254.578697 295.026042 249.945919 294.739583 245.30793 295.026042 C 237.199266 295.463542 228.074414 297.34375 220.398281 293.145833 C 211.992578 288.515625 209.095137 277.661458 210.111326 268.395833 C 211.127515 259.28125 214.890018 250.885417 216.630567 241.765625 C 216.917184 240.317708 217.063098 239.015625 217.209013 237.567708 C 218.079287 229.609375 217.063098 221.072917 213.008766 214.270833 C 210.9816 210.942708 208.370777 208.046875 205.18672 205.875 C 193.742873 198.203125 177.666248 200.666667 163.757492 200.088542 C 157.238251 199.796875 151.010839 198.786458 145.794404 195.3125 C 143.188792 193.572917 141.015712 191.401042 139.13446 188.942708 C 134.934214 183.151042 133.047751 175.625 132.177476 168.390625 C 131.166499 160.578125 131.166499 152.760417 129.280036 145.526042 C 128.70159 143.208333 127.97723 141.036458 126.966253 138.864583 C 118.998292 120.484375 96.402426 112.09375 74.239092 106.15625 C 60.908782 102.541667 48.745786 98.197917 36.139836 94.578125 C 26.290623 91.828125 16.149582 89.515625 5.867838 86.765625 C -5.143478 83.869792 -16.587325 80.395833 -27.160898 76.057292 C -39.037276 71.135417 -50.048592 64.911458 -57.000364 54.34375 " transform="matrix(0.749584,0,0,0.75,0,0)"/>
<path style="fill:none;stroke-width:1;stroke-linecap:butt;stroke-linejoin:miter;stroke:rgb(14.509804%,16.470588%,19.215686%);stroke-opacity:1;stroke-miterlimit:10;" d="M 368.579426 517.036458 C 387.845319 503 400.305355 481 407.111213 458.135417 C 408.559933 453.359375 409.716825 448.583333 410.733014 443.807292 C 414.500728 425.427083 415.65762 406.46875 415.511706 387.510417 C 415.511706 384.182292 415.511706 380.708333 415.225088 377.375 C 414.641431 365.510417 412.906094 353.786458 407.835573 343.223958 C 407.403042 342.208333 406.965299 341.338542 406.386853 340.328125 C 396.245812 321.369792 376.979918 306.317708 372.779672 286.057292 C 370.17406 273.463542 374.520221 261.59375 375.677112 249.875 C 376.979918 237.427083 374.374306 223.677083 364.379179 214.270833 C 360.903293 210.942708 356.557133 208.479167 351.924355 206.598958 C 343.377948 203.125 333.523524 201.244792 325.268946 195.744792 C 316.576625 189.958333 311.365401 180.40625 308.467961 170.854167 C 305.570521 161.442708 304.700246 151.75 303.39744 141.760417 C 303.251526 140.171875 302.959698 138.723958 302.818995 137.130208 C 301.510977 128.588542 299.629726 119.619792 294.418502 112.671875 C 291.807679 109.197917 288.61841 106.59375 284.855907 104.567708 C 271.963339 97.619792 254.578697 99.791667 239.658964 101.671875 C 232.707192 102.541667 225.755419 103.265625 219.382093 101.963542 C 216.04691 101.385417 213.008766 100.223958 209.965412 98.635417 C 203.013639 94.869792 198.229736 88.359375 193.888787 81.697917 C 189.250798 74.609375 184.904637 67.229167 178.823139 62.161458 C 176.795973 60.567708 174.763596 59.125 172.590516 57.963542 C 154.194896 48.265625 128.269059 56.375 104.51109 49.28125 C 88.142637 44.359375 76.552875 31.770833 63.806222 21.635417 C 53.811095 13.822917 42.513162 7.166667 30.49087 1.666667 C 17.598302 -4.125 3.548843 -8.755208 -10.359913 -11.791667 C -25.858092 -15.265625 -41.934717 -17.151042 -53.816307 -27.28125 " transform="matrix(0.749584,0,0,0.75,0,0)"/>
<path style="fill:none;stroke-width:1;stroke-linecap:butt;stroke-linejoin:miter;stroke:rgb(14.509804%,16.470588%,19.215686%);stroke-opacity:1;stroke-miterlimit:10;" d="M 316.576625 -403.427083 C 309.770767 -384.46875 305.278692 -361.3125 317.592814 -345.098958 C 321.79306 -339.744792 327.301323 -335.692708 333.382821 -332.510417 C 334.539713 -331.932292 335.701816 -331.354167 336.858707 -330.770833 C 353.951521 -322.380208 372.784883 -317.458333 391.758948 -316.302083 C 398.424103 -315.864583 405.229962 -315.864583 411.603288 -313.984375 C 430.723268 -308.338542 440.864309 -284.463542 433.912536 -268.104167 C 431.16101 -261.59375 426.377107 -256.385417 422.030947 -250.885417 C 420.003781 -248.421875 418.122529 -245.817708 416.38198 -243.067708 C 409.576122 -232.9375 404.213773 -221.067708 403.202796 -207.901042 C 402.040693 -191.546875 409.576122 -176.927083 415.079174 -161.875 C 422.030947 -142.630208 419.857866 -121.0625 424.063324 -100.078125 C 428.409484 -78.65625 435.215342 -58.6875 437.820954 -37.119792 C 439.269674 -24.385417 442.458943 -11.796875 439.707417 0.0729167 C 438.545314 5.140625 435.793788 9.479167 432.317902 13.53125 C 425.220215 21.927083 414.2089 28.296875 402.186607 26.411458 C 376.547387 22.651042 351.632526 14.833333 328.890746 5.864583 C 320.922785 2.822917 313.246653 -0.505208 305.716435 -3.6875 C 286.012798 -11.9375 267.476476 -23.083333 246.324119 -32.635417 C 226.047248 -41.755208 205.18672 -51.161458 184.326191 -58.6875 C 175.493167 -61.869792 166.509018 -64.765625 157.675994 -67.223958 C 145.940318 -70.552083 132.901837 -71.421875 121.749818 -77.9375 C 103.932644 -88.208333 96.689043 -104.708333 79.888058 -116 C 65.838599 -125.40625 49.324232 -129.458333 38.896573 -144.65625 C 37.588556 -146.536458 36.431664 -148.416667 35.415476 -150.442708 C 29.188064 -162.166667 26.728366 -175.770833 24.987817 -188.505208 C 23.830926 -197.1875 22.814737 -206.598958 17.165771 -213.541667 C 12.241164 -219.625 4.997563 -222.807292 -1.083935 -227.583333 C -7.170644 -232.213542 -12.381867 -240.317708 -9.489638 -247.557292 " transform="matrix(0.749584,0,0,0.75,0,0)"/>
<path style="fill:none;stroke-width:1;stroke-linecap:butt;stroke-linejoin:miter;stroke:rgb(14.509804%,16.470588%,19.215686%);stroke-opacity:1;stroke-miterlimit:10;" d="M 851.091834 -355.953125 C 865.573824 -342.494792 866.590013 -319.484375 861.665406 -300.088542 C 856.7408 -280.697917 847.178205 -262.604167 843.848233 -243.213542 C 842.253598 -233.807292 841.383324 -222.953125 838.485884 -213.833333 C 835.880272 -205.4375 831.534111 -198.489583 823.425447 -195.161458 C 818.063098 -192.994792 811.835686 -192.994792 806.473337 -190.677083 C 791.991346 -184.020833 791.991346 -165.494792 790.250798 -148.994792 C 789.958969 -146.822917 789.818266 -144.65625 789.380523 -142.484375 C 786.483083 -124.390625 775.622893 -107.890625 773.73643 -89.65625 C 772.001093 -73.447917 776.487956 -57.817708 780.255671 -42.041667 C 781.850305 -35.53125 783.44494 -28.729167 784.310003 -21.927083 C 785.180277 -14.833333 785.180277 -8.03125 784.023385 -1.520833 C 783.299025 2.677083 782.136923 6.729167 780.834117 10.494792 C 775.331064 27.713542 765.335938 43.78125 755.194896 60.28125 C 749.400016 69.6875 743.464432 79.09375 738.539826 89.515625 C 734.626197 97.765625 731.442139 106.302083 729.555676 115.276042 C 728.106956 121.5 728.106956 127.864583 728.544699 134.088542 C 728.97723 141.036458 730.139333 147.984375 730.571865 154.932292 C 730.858482 160.71875 730.858482 165.786458 729.269059 170.994792 C 728.398784 173.744792 726.80415 175.916667 725.647258 178.375 C 724.63107 180.546875 723.760795 182.864583 723.90671 185.901042 C 724.63107 195.598958 728.685402 205.005208 732.744945 213.979167 C 739.550803 229.177083 746.215958 244.375 752.881113 259.567708 C 756.065171 266.947917 759.395143 274.333333 762.584411 281.713542 C 767.654932 293.145833 772.579538 304.578125 777.650059 316.010417 C 780.255671 321.947917 783.007197 328.3125 782.574665 334.682292 C 782.282837 339.166667 780.693414 343.21875 778.661036 347.276042 C 776.925699 350.890625 775.039236 354.364583 773.590516 358.130208 C 773.449813 358.416667 773.303898 358.854167 773.303898 359.140625 C 772.001093 362.760417 771.276732 366.520833 770.552372 370.140625 C 769.249566 377.088542 768.525206 384.036458 765.190023 389.822917 C 759.108525 400.53125 745.783426 405.453125 733.031562 406.177083 C 720.430823 406.755208 707.68417 404.729167 694.937517 407.770833 C 693.634711 408.057292 692.185991 408.494792 690.883185 408.927083 C 687.839831 410.083333 685.088305 411.53125 682.915224 413.125 C 681.466504 414.135417 680.163698 415.151042 679.001595 416.307292 C 676.687812 418.479167 674.222903 420.9375 671.903909 423.6875 C 664.081862 432.953125 658.000364 444.677083 652.783929 457.84375 C 644.961883 477.671875 638.588556 499.963542 635.982944 520.947917 " transform="matrix(0.749584,0,0,0.75,0,0)"/>
<path style="fill:none;stroke-width:1;stroke-linecap:butt;stroke-linejoin:miter;stroke:rgb(14.509804%,16.470588%,19.215686%);stroke-opacity:1;stroke-miterlimit:10;" d="M 802.997451 -351.177083 C 813.862852 -338.010417 814.733126 -318.182292 810.678794 -301.104167 C 806.478548 -284.026042 798.218759 -267.817708 793.294152 -251.463542 C 790.834455 -243.5 788.661375 -234.817708 785.039574 -227.4375 C 781.850305 -220.78125 777.35823 -215.28125 770.406458 -212.09375 C 765.627766 -209.927083 760.411331 -209.489583 755.778553 -207.177083 C 743.0319 -200.953125 740.280374 -186.770833 737.091105 -172.729167 C 736.658574 -170.848958 736.220831 -168.96875 735.788299 -167.229167 C 732.020585 -151.598958 724.344452 -136.546875 722.603904 -120.338542 C 720.868566 -103.260417 723.187561 -86.328125 725.214727 -69.395833 C 725.939087 -62.739583 727.674424 -55.213542 728.25287 -47.833333 C 728.836527 -40.161458 728.25287 -32.78125 725.214727 -26.84375 C 723.187561 -22.9375 720.576738 -20.333333 717.971126 -17.729167 C 707.397553 -6.729167 691.461631 2.677083 677.120344 15.270833 C 668.719851 22.505208 660.897805 31.046875 655.248838 42.1875 C 650.902678 50.875 648.297066 60.28125 647.280877 69.833333 C 646.556517 76.489583 647.134963 83.291667 648.437769 89.802083 C 649.745786 97.041667 651.772952 104.130208 653.508289 111.078125 C 654.816307 116.869792 656.119112 122.078125 656.119112 127.286458 C 656.119112 130.182292 655.68137 132.5 655.535455 135.104167 C 655.394752 137.421875 655.394752 139.880208 656.119112 142.916667 C 658.57881 152.760417 663.216799 162.458333 667.703663 171.864583 C 675.239092 187.786458 682.482693 203.994792 689.726294 220.057292 C 693.20218 227.875 696.678066 235.6875 700.299866 243.505208 C 705.802919 255.661458 711.160057 267.671875 716.66832 279.833333 C 719.56576 286.197917 722.317286 292.713542 723.187561 299.223958 C 723.766007 303.854167 723.474178 308.197917 722.895732 312.541667 C 722.463201 316.447917 721.879544 320.354167 720.868566 324.552083 C 720.722652 324.838542 720.722652 325.276042 720.576738 325.5625 C 719.56576 329.473958 718.11704 333.380208 716.66832 337 C 713.77088 344.234375 710.873439 350.3125 706.23545 354.942708 C 697.689043 363.484375 683.639584 365.796875 670.022657 363.630208 C 653.221672 360.880208 636.707304 355.234375 619.181959 361.458333 C 617.441411 362.036458 615.700862 362.90625 614.111439 363.916667 C 610.343724 366.380208 607.738112 369.708333 607.154455 373.036458 C 606.721924 375.208333 607.154455 376.796875 607.300369 378.822917 C 607.446284 382.442708 606.867838 386.786458 606.143478 391.270833 C 604.116312 406.614583 603.246037 423.979167 599.916065 442.505208 C 594.699631 470.869792 583.255784 499.817708 573.985017 527.171875 " transform="matrix(0.749584,0,0,0.75,0,0)"/>
<path style="fill:none;stroke-width:1;stroke-linecap:butt;stroke-linejoin:miter;stroke:rgb(14.509804%,16.470588%,19.215686%);stroke-opacity:1;stroke-miterlimit:10;" d="M 722.749818 -343.21875 C 727.820339 -330.630208 728.25287 -316.15625 725.35543 -302.697917 C 722.457989 -289.234375 716.376491 -276.354167 708.700359 -265.067708 C 704.78673 -259.421875 700.44057 -254.213542 695.370049 -249.723958 C 691.169803 -245.963542 686.537025 -242.78125 681.32059 -240.03125 C 677.69879 -238.145833 674.076989 -236.557292 670.455189 -234.53125 C 660.75189 -229.177083 653.075758 -221.9375 647.713409 -212.385417 C 646.989049 -211.083333 646.264689 -209.78125 645.686243 -208.333333 C 640.329105 -196.901042 638.01011 -184.020833 636.853219 -171.286458 C 635.11267 -152.46875 633.955778 -133.65625 632.793675 -114.984375 C 632.361144 -108.328125 633.955778 -99.5 634.096481 -90.958333 C 634.242396 -82.276042 632.793675 -74.171875 626.566263 -69.104167 C 622.652634 -65.921875 617.441411 -65.34375 612.516804 -64.911458 C 594.261888 -63.463542 567.757604 -66.067708 546.026802 -59.697917 C 533.280149 -56.083333 522.268833 -49.28125 515.462975 -36.541667 C 510.392455 -27.135417 508.79782 -16.427083 509.381477 -5.713542 C 509.814009 1.666667 511.554557 9.046875 513.868341 15.848958 C 516.619867 23.520833 520.095753 30.901042 524.009382 37.989583 C 527.052737 43.635417 530.236794 49.135417 533.280149 54.635417 C 534.874783 57.53125 536.323503 60.421875 537.912927 63.317708 C 539.361647 65.921875 540.664453 68.671875 542.259087 71.421875 C 547.621436 81.411458 553.270403 91.6875 558.486838 101.963542 C 567.319862 119.182292 575.433737 136.838542 583.688315 154.354167 C 587.601944 162.890625 591.656276 171.432292 595.564694 179.822917 C 601.651403 192.994792 607.878815 206.307292 613.965524 219.479167 C 617.149582 226.427083 620.338851 233.375 623.236291 240.177083 C 625.263457 245.09375 627.144709 249.869792 628.885258 254.645833 C 630.474681 258.989583 632.21523 263.619792 631.782698 268.395833 C 631.782698 268.833333 631.636784 269.265625 631.636784 269.557292 C 630.912424 273.895833 628.593429 277.947917 625.841903 281.421875 C 620.047022 288.947917 613.81961 293.578125 607.154455 296.328125 C 594.261888 301.25 579.342155 298.5 564.276507 292.567708 C 540.664453 283.161458 517.490141 272.447917 492.142749 284.171875 C 489.677841 285.328125 487.358846 286.921875 485.477594 288.947917 C 480.698902 293.578125 478.09329 300.239583 480.120456 306.026042 C 481.423262 309.932292 484.461406 312.682292 486.926315 316.010417 C 491.418389 322.088542 493.737384 329.614583 495.910464 337 C 503.586596 362.614583 511.554557 388.953125 511.262729 416.453125 C 510.830197 459.145833 490.402201 499.239583 470.125329 536.864583 " transform="matrix(0.749584,0,0,0.75,0,0)"/>
<path style="fill:none;stroke-width:1;stroke-linecap:butt;stroke-linejoin:miter;stroke:rgb(14.509804%,16.470588%,19.215686%);stroke-opacity:1;stroke-miterlimit:10;" d="M 591.07783 235.541667 C 580.212429 200.229167 551.243237 173.3125 537.193778 139.302083 C 533.280149 129.75 530.528623 119.90625 527.344565 110.067708 C 523.57685 98.489583 519.23069 86.911458 514.306084 75.765625 C 512.419621 71.421875 509.959923 66.791667 505.321934 65.489583 C 500.543242 64.1875 495.618636 67.369792 492.867109 71.421875 C 490.115583 75.473958 488.812777 80.395833 486.639697 84.739583 C 480.120456 98.052083 464.908895 106.59375 450.135076 105.145833 C 438.253486 103.989583 426.81485 98.197917 414.646643 98.630208 C 407.111213 98.921875 403.056881 103.84375 405.229962 111.369792 C 406.24615 114.84375 408.414019 117.880208 410.733014 120.776042 C 420.441523 133.364583 432.463816 144.802083 438.983057 159.416667 C 446.221447 175.625 443.615835 193.140625 443.615835 210.364583 C 441.588669 218.46875 439.561503 227.151042 442.74556 234.822917 C 446.805104 244.515625 457.957122 249.005208 468.384781 249.869792 C 478.817651 250.59375 489.245309 248.567708 499.672968 249.729167 C 519.663221 251.755208 537.047863 264.78125 556.746289 268.255208 C 581.807063 272.739583 599.332408 262.609375 591.07783 235.541667 Z M 591.07783 235.541667 " transform="matrix(0.749584,0,0,0.75,0,0)"/>
<path style="fill:none;stroke-width:1;stroke-linecap:butt;stroke-linejoin:miter;stroke:rgb(14.509804%,16.470588%,19.215686%);stroke-opacity:1;stroke-miterlimit:10;" d="M 546.464545 223.822917 C 547.04299 229.901042 545.59427 234.239583 541.97247 236.703125 C 538.204755 239.307292 532.701703 239.885417 526.474291 238.583333 C 516.479164 236.411458 507.640928 229.755208 498.516076 226.859375 C 493.445555 225.270833 488.666863 224.401042 483.88296 222.520833 C 479.104268 220.635417 474.033747 217.307292 471.57405 212.098958 C 471.282221 211.375 470.995604 210.651042 470.703775 209.927083 C 469.687587 206.307292 469.687587 202.692708 469.687587 199.21875 C 467.952249 190.244792 467.081975 181.270833 462.881729 172.588542 C 461.000477 168.822917 458.827397 165.354167 456.654316 161.880208 C 454.189408 157.96875 451.870413 154.0625 449.843247 150.010417 C 448.972973 148.276042 448.10791 146.536458 447.816081 144.510417 C 447.529464 143.354167 447.529464 142.338542 447.670167 141.328125 C 448.10791 138.864583 449.55663 137.130208 452.162242 136.552083 C 455.638128 135.682292 459.405842 136.260417 463.027643 136.838542 C 465.48734 137.276042 467.952249 137.5625 470.411947 137.5625 C 478.09329 137.708333 485.915337 133.947917 490.402201 128.15625 C 491.850921 126.276042 492.867109 123.958333 494.602447 122.369792 C 497.21327 120.052083 500.83507 118.895833 504.019128 119.619792 C 507.354311 120.338542 509.668094 122.802083 511.262729 125.697917 C 512.711449 128.447917 514.014255 131.630208 514.884529 135.104167 C 516.187335 140.3125 517.203524 145.234375 518.214501 150.15625 C 519.663221 156.8125 521.257856 163.46875 524.441913 170.848958 C 532.555789 188.942708 544.86991 205.875 546.464545 223.822917 Z M 546.464545 223.822917 " transform="matrix(0.749584,0,0,0.75,0,0)"/>
<path style="fill:none;stroke-width:1;stroke-linecap:butt;stroke-linejoin:miter;stroke:rgb(14.509804%,16.470588%,19.215686%);stroke-opacity:1;stroke-miterlimit:10;" d="M 979.142021 375.348958 C 965.671008 391.5625 950.60536 406.901042 932.355655 417.609375 C 917.144093 426.583333 899.472834 432.083333 882.088192 431.213542 C 878.612306 431.067708 875.13642 430.635417 871.806448 429.911458 C 851.232537 425.572917 832.836917 409.9375 827.912311 389.822917 C 821.976727 365.21875 834.869295 342.208333 842.832044 318.760417 C 847.324119 305.880208 849.643114 291.989583 850.075645 278.239583 C 850.367474 268.25 849.497199 258.265625 847.615948 248.567708 C 841.821067 219.770833 822.409259 196.755208 819.949561 166.364583 C 818.49563 148.854167 821.830813 107.604167 828.350054 63.171875 C 832.982832 31.765625 838.923627 -1.083333 846.30793 -28.291667 C 855.29208 -60.859375 865.865653 -85.026042 877.017671 -86.328125 C 888.607433 -87.630208 896.429479 -75.473958 901.645914 -65.489583 C 908.451772 -52.609375 913.522293 -38.28125 920.911808 -24.822917 C 923.225591 -20.625 925.6905 -16.572917 928.442026 -12.661458 C 942.058954 6.151042 962.195122 19.609375 982.326079 31.333333 C 995.218646 38.859375 1008.840785 44.9375 1023.030947 48.84375 C 1027.09049 50.005208 1031.290736 51.015625 1035.490982 51.739583 C 1046.059344 53.619792 1057.649105 54.34375 1065.471152 61.4375 C 1071.271244 66.645833 1073.152495 74.609375 1076.482467 81.411458 C 1083.439451 96.026042 1096.759339 107.604167 1111.392455 112.09375 C 1119.219712 114.552083 1127.041759 115.130208 1134.571977 117.302083 C 1147.459333 120.921875 1165.422421 130.473958 1173.682211 141.328125 C 1181.358343 151.604167 1175.130931 172.875 1169.909285 184.3125 C 1168.898307 186.479167 1167.892541 188.651042 1166.000867 190.244792 C 1161.222175 194.151042 1153.978574 192.416667 1147.610459 192.270833 C 1133.561 191.979167 1123.85249 200.229167 1112.408643 206.598958 C 1110.230352 207.755208 1107.92178 208.911458 1105.597574 210.072917 C 1094.878087 214.994792 1083.580154 218.901042 1073.590238 225.557292 C 1056.35151 236.989583 1042.729372 252.765625 1031.290736 269.697917 C 1025.490644 278.385417 1020.27942 287.354167 1015.500728 296.328125 C 1012.598077 301.828125 1010.138379 307.473958 1007.819385 313.260417 C 999.132275 334.96875 993.483308 357.984375 979.142021 375.348958 Z M 979.142021 375.348958 " transform="matrix(0.749584,0,0,0.75,0,0)"/>
<path style="fill:none;stroke-width:1;stroke-linecap:butt;stroke-linejoin:miter;stroke:rgb(14.509804%,16.470588%,19.215686%);stroke-opacity:1;stroke-miterlimit:10;" d="M 1035.918303 163.328125 C 1024.771495 163.760417 1013.327648 161.734375 1002.608161 164.770833 C 988.412788 168.822917 978.125832 181.125 969.287597 192.994792 C 964.654819 199.072917 960.162745 205.296875 957.557133 212.385417 C 953.935332 222.229167 954.367864 233.083333 953.210972 243.505208 C 952.054081 253.927083 948.43228 265.067708 939.594045 270.713542 C 933.945078 274.333333 926.701478 275.197917 920.474065 272.885417 C 904.975886 267.385417 900.77564 246.979167 903.959698 230.770833 C 907.148966 214.557292 914.971013 199.072917 913.954825 182.572917 C 913.230464 170.708333 907.727412 159.708333 903.813783 148.416667 C 900.197194 138.286458 897.8782 127.723958 896.716097 117.010417 C 895.851034 109.197917 895.851034 100.802083 900.337897 94.4375 C 908.019241 83.4375 924.820226 84.015625 936.842519 89.661458 C 948.864812 95.302083 959.151767 104.854167 971.89842 108.90625 C 984.212542 112.817708 997.391726 111.223958 1010.138379 109.921875 C 1022.890243 108.619792 1036.361257 107.895833 1048.091721 113.104167 C 1079.379908 127.286458 1067.070998 162.020833 1035.918303 163.328125 Z M 1035.918303 163.328125 " transform="matrix(0.749584,0,0,0.75,0,0)"/>
<path style="fill:none;stroke-width:1;stroke-linecap:butt;stroke-linejoin:miter;stroke:rgb(14.509804%,16.470588%,19.215686%);stroke-opacity:1;stroke-miterlimit:10;" d="M 3.694758 -162.744792 C 7.462472 -132.0625 24.409372 -103.260417 49.324232 -84.734375 C 57.292193 -78.802083 66.125217 -74.026042 73.801349 -67.802083 C 90.607545 -54.489583 102.33801 -34.947917 121.171372 -24.677083 C 153.038005 -7.161458 193.164427 -21.057292 228.506945 -12.661458 C 245.599759 -8.609375 260.957235 0.651042 275.58514 10.494792 C 281.812552 14.692708 288.477707 19.901042 288.910239 27.28125 C 289.056153 28.729167 288.769536 30.177083 287.899261 31.333333 C 286.450541 32.927083 283.985632 32.927083 281.812552 32.494792 C 268.919985 30.177083 257.767966 22.796875 246.324119 16.572917 C 227.9285 6.588542 207.792331 -0.9375 186.931803 -1.807292 C 162.887217 -2.822917 137.247997 4.5625 115.809023 -6.296875 C 91.910351 -18.453125 82.639584 -49.135417 59.897805 -63.317708 C 50.772952 -68.963542 40.053465 -71.713542 30.204252 -75.765625 C -12.09525 -92.84375 -40.923739 -138.432292 -38.604745 -183.875 " transform="matrix(0.749584,0,0,0.75,0,0)"/>
<path style="fill:none;stroke-width:1;stroke-linecap:butt;stroke-linejoin:miter;stroke:rgb(14.509804%,16.470588%,19.215686%);stroke-opacity:1;stroke-miterlimit:10;" d="M 230.82594 483.171875 C 241.399513 470.583333 248.929731 449.307292 251.540554 433.239583 C 254.000251 418.046875 251.39464 401.255208 240.821067 389.96875 C 231.5503 379.984375 217.933373 375.786458 205.332634 371.010417 C 186.931803 363.916667 168.682098 354.364583 156.367977 338.880208 C 148.405227 328.75 143.334706 315.723958 143.621324 302.697917 C 143.913152 291.265625 158.25444 280.265625 150.140564 268.979167 C 146.664678 264.203125 141.015712 261.59375 135.220831 260.291667 C 129.571865 258.84375 123.63107 258.557292 117.982103 256.963542 C 81.623396 247.411458 100.16493 211.666667 82.49367 189.234375 C 76.266258 181.270833 65.400857 179.244792 55.40573 177.942708 C 36.139836 175.630208 16.728028 174.46875 -2.678569 174.760417 " transform="matrix(0.749584,0,0,0.75,0,0)"/>
<path style="fill:none;stroke-width:1;stroke-linecap:butt;stroke-linejoin:miter;stroke:rgb(14.509804%,16.470588%,19.215686%);stroke-opacity:1;stroke-miterlimit:10;" d="M 820.814624 282.4375 C 817.776481 265.791667 809.08416 250.885417 801.548731 235.6875 C 782.72058 197.916667 771.130818 153.338542 785.185488 113.536458 C 786.050551 111.223958 786.920826 108.760417 786.628997 106.302083 C 786.196466 103.84375 784.023385 101.380208 781.558477 101.817708 C 780.255671 102.104167 779.244693 102.973958 778.374419 103.84375 C 770.844201 111.802083 768.671121 123.380208 768.957738 134.234375 C 769.249566 145.088542 771.568561 155.942708 771.709264 166.796875 C 771.855178 187.494792 763.746514 208.338542 768.671121 228.453125 C 773.73643 248.567708 791.121072 263.619792 797.20257 283.447917 C 799.521565 290.973958 800.537753 325.708333 810.819497 325.854167 C 824.290511 326 822.11743 289.671875 820.814624 282.4375 Z M 820.814624 282.4375 " transform="matrix(0.749584,0,0,0.75,0,0)"/>
<path style="fill:none;stroke-width:1;stroke-linecap:butt;stroke-linejoin:miter;stroke:rgb(14.509804%,16.470588%,19.215686%);stroke-opacity:1;stroke-miterlimit:10;" d="M 1223.798548 207.177083 C 1215.538759 207.03125 1207.581221 211.088542 1201.4893 216.729167 C 1195.407802 222.375 1191.061642 229.609375 1187.012521 236.848958 C 1184.547612 241.333333 1182.077492 246.109375 1178.3202 249.729167 C 1174.552485 253.34375 1169.341261 255.807292 1164.270741 254.651042 C 1159.627541 253.635417 1156.297569 250.015625 1152.680979 246.979167 C 1149.059179 243.9375 1144.42119 241.333333 1139.929115 242.78125 C 1138.188567 243.359375 1136.599143 244.661458 1134.571977 244.807292 C 1130.079903 245.098958 1127.760908 238.729167 1129.9392 234.822917 C 1132.11228 230.911458 1136.739846 229.177083 1141.091218 227.583333 C 1158.762477 221.359375 1176.428526 215.28125 1194.110207 209.0625 C 1199.472557 207.177083 1204.829694 205.296875 1209.462472 202.255208 C 1221.338851 194.151042 1226.409372 179.390625 1229.880046 165.354167 " transform="matrix(0.749584,0,0,0.75,0,0)"/>
<path style="fill:none;stroke-width:1;stroke-linecap:butt;stroke-linejoin:miter;stroke:rgb(14.509804%,16.470588%,19.215686%);stroke-opacity:1;stroke-miterlimit:10;" d="M 1174.552485 230.1875 C 1168.470987 238.875 1158.329946 240.609375 1151.081134 232.359375 C 1158.762477 226.135417 1182.228618 224.833333 1186.428864 217.453125 C 1183.531423 222.375 1177.882457 225.411458 1174.552485 230.1875 Z M 1174.552485 230.1875 " transform="matrix(0.749584,0,0,0.75,0,0)"/>
<path style="fill:none;stroke-width:1;stroke-linecap:butt;stroke-linejoin:miter;stroke:rgb(14.509804%,16.470588%,19.215686%);stroke-opacity:1;stroke-miterlimit:10;" d="M 1066.049598 22.505208 C 1059.238528 20.911458 1052.151264 22.796875 1045.048366 23.083333 C 1023.901221 23.953125 1004.781241 10.348958 990.872485 -5.572917 C 976.968941 -21.489583 966.103539 -40.161458 950.751275 -54.635417 C 943.940205 -61 935.247884 -66.9375 925.977117 -65.921875 C 926.268946 -56.515625 933.074804 -48.411458 940.756148 -42.765625 C 948.43228 -37.265625 957.265304 -33.505208 964.800734 -27.567708 C 975.666135 -19.03125 982.763821 -6.729167 992.321206 3.401042 C 1005.50039 17.4375 1023.468689 26.989583 1042.437543 30.03125 C 1049.389316 31.1875 1056.35151 31.479167 1063.298072 33.072917 C 1067.649443 34.083333 1071.84969 35.677083 1075.89881 37.265625 C 1079.228782 31.046875 1071.990393 24.098958 1066.049598 22.505208 Z M 1066.049598 22.505208 " transform="matrix(0.749584,0,0,0.75,0,0)"/>
<path style="fill:none;stroke-width:1;stroke-linecap:butt;stroke-linejoin:miter;stroke:rgb(14.509804%,16.470588%,19.215686%);stroke-opacity:1;stroke-miterlimit:10;" d="M 966.8279 155.364583 C 963.930459 159.708333 960.746402 165.208333 955.529967 165.354167 C 950.026915 165.494792 946.551028 158.984375 947.275388 153.484375 C 947.421303 151.890625 947.853834 150.442708 947.70792 148.854167 C 947.275388 145.958333 944.81048 143.932292 943.075142 141.614583 C 941.188679 139.302083 940.031788 135.828125 941.913039 133.65625 C 942.637399 132.786458 943.799502 132.354167 944.956394 132.0625 C 951.908166 129.895833 959.584299 129.895833 966.541282 131.921875 C 969.146894 132.645833 971.752506 133.802083 974.363329 134.088542 C 981.747633 135.104167 988.120959 131.052083 994.932029 129.75 C 999.710721 128.880208 1009.997676 129.604167 1002.462247 135.828125 C 998.986361 138.723958 988.120959 138.432292 983.342267 140.890625 C 976.823026 144.078125 971.028146 149.140625 966.8279 155.364583 Z M 966.8279 155.364583 " transform="matrix(0.749584,0,0,0.75,0,0)"/>
</g>
</svg>
